<mxfile host="app.diagrams.net" modified="2023-10-16T21:26:20.540Z" agent="Mozilla/5.0 (Windows NT 10.0; Win64; x64) AppleWebKit/537.36 (KHTML, like Gecko) Chrome/118.0.0.0 Safari/537.36" etag="jGWCiTxAGfDJcNfQNAyw" version="22.0.4" type="github">
  <diagram name="Página-1" id="04JyPl4IRqtbnE40Xhla">
    <mxGraphModel dx="1592" dy="1585" grid="1" gridSize="10" guides="1" tooltips="1" connect="1" arrows="1" fold="1" page="1" pageScale="1" pageWidth="827" pageHeight="1169" math="0" shadow="0">
      <root>
        <mxCell id="0" />
        <mxCell id="1" parent="0" />
        <mxCell id="iAksBa2o4i4fiiUXH_SR-1" value="" style="verticalLabelPosition=bottom;verticalAlign=top;html=1;shape=card;whiteSpace=wrap;size=20;arcSize=12;fillColor=#e1d5e7;strokeColor=#9673a6;" vertex="1" parent="1">
          <mxGeometry x="-200" y="-470" width="265" height="780" as="geometry" />
        </mxCell>
        <mxCell id="iAksBa2o4i4fiiUXH_SR-61" style="edgeStyle=orthogonalEdgeStyle;rounded=0;orthogonalLoop=1;jettySize=auto;html=1;exitX=0.5;exitY=1;exitDx=0;exitDy=0;exitPerimeter=0;entryX=0.5;entryY=0;entryDx=0;entryDy=0;" edge="1" parent="1" source="iAksBa2o4i4fiiUXH_SR-3" target="iAksBa2o4i4fiiUXH_SR-52">
          <mxGeometry relative="1" as="geometry" />
        </mxCell>
        <mxCell id="iAksBa2o4i4fiiUXH_SR-3" value="&lt;font style=&quot;font-size: 20px;&quot;&gt;Inicio&lt;/font&gt;" style="strokeWidth=2;html=1;shape=mxgraph.flowchart.start_1;whiteSpace=wrap;fillColor=#f8cecc;strokeColor=#b85450;" vertex="1" parent="1">
          <mxGeometry x="180" y="-340" width="100" height="60" as="geometry" />
        </mxCell>
        <mxCell id="iAksBa2o4i4fiiUXH_SR-4" value="&lt;font style=&quot;font-size: 20px;&quot;&gt;Fin&lt;/font&gt;" style="strokeWidth=2;html=1;shape=mxgraph.flowchart.terminator;whiteSpace=wrap;fillColor=#f8cecc;strokeColor=#b85450;" vertex="1" parent="1">
          <mxGeometry x="190" y="160" width="100" height="60" as="geometry" />
        </mxCell>
        <mxCell id="iAksBa2o4i4fiiUXH_SR-5" style="edgeStyle=orthogonalEdgeStyle;rounded=0;orthogonalLoop=1;jettySize=auto;html=1;fillColor=#008a00;strokeColor=#005700;" edge="1" parent="1" source="iAksBa2o4i4fiiUXH_SR-6" target="iAksBa2o4i4fiiUXH_SR-8">
          <mxGeometry relative="1" as="geometry" />
        </mxCell>
        <mxCell id="iAksBa2o4i4fiiUXH_SR-6" value="5" style="verticalLabelPosition=middle;verticalAlign=middle;html=1;shape=hexagon;perimeter=hexagonPerimeter2;arcSize=6;size=0.27;labelPosition=center;align=center;fillColor=#d5e8d4;strokeColor=#82b366;fontSize=16;" vertex="1" parent="1">
          <mxGeometry x="-147.5" y="-360" width="140" height="80" as="geometry" />
        </mxCell>
        <mxCell id="iAksBa2o4i4fiiUXH_SR-7" style="edgeStyle=orthogonalEdgeStyle;rounded=0;orthogonalLoop=1;jettySize=auto;html=1;exitX=0.5;exitY=1;exitDx=0;exitDy=0;entryX=1;entryY=0.5;entryDx=0;entryDy=0;fillColor=#008a00;strokeColor=#005700;" edge="1" parent="1" source="iAksBa2o4i4fiiUXH_SR-8" target="iAksBa2o4i4fiiUXH_SR-6">
          <mxGeometry relative="1" as="geometry">
            <Array as="points">
              <mxPoint x="-77.5" y="-200" />
              <mxPoint x="12.5" y="-200" />
              <mxPoint x="12.5" y="-320" />
            </Array>
          </mxGeometry>
        </mxCell>
        <mxCell id="iAksBa2o4i4fiiUXH_SR-8" value="move();" style="rounded=1;whiteSpace=wrap;html=1;absoluteArcSize=1;arcSize=14;strokeWidth=2;fillColor=#d5e8d4;strokeColor=#82b366;fontSize=12;" vertex="1" parent="1">
          <mxGeometry x="-127.5" y="-250" width="100" height="30" as="geometry" />
        </mxCell>
        <mxCell id="iAksBa2o4i4fiiUXH_SR-9" style="edgeStyle=orthogonalEdgeStyle;rounded=0;orthogonalLoop=1;jettySize=auto;html=1;exitX=0.5;exitY=1;exitDx=0;exitDy=0;entryX=0.5;entryY=0;entryDx=0;entryDy=0;" edge="1" parent="1" source="iAksBa2o4i4fiiUXH_SR-10" target="iAksBa2o4i4fiiUXH_SR-26">
          <mxGeometry relative="1" as="geometry" />
        </mxCell>
        <mxCell id="iAksBa2o4i4fiiUXH_SR-48" style="edgeStyle=orthogonalEdgeStyle;rounded=0;orthogonalLoop=1;jettySize=auto;html=1;exitX=0;exitY=0.5;exitDx=0;exitDy=0;entryX=0.5;entryY=0;entryDx=0;entryDy=0;" edge="1" parent="1" source="iAksBa2o4i4fiiUXH_SR-10" target="iAksBa2o4i4fiiUXH_SR-47">
          <mxGeometry relative="1" as="geometry">
            <Array as="points">
              <mxPoint x="-157" y="50" />
              <mxPoint x="-157" y="170" />
              <mxPoint x="-67" y="170" />
            </Array>
          </mxGeometry>
        </mxCell>
        <mxCell id="iAksBa2o4i4fiiUXH_SR-10" value="n" style="verticalLabelPosition=middle;verticalAlign=middle;html=1;shape=hexagon;perimeter=hexagonPerimeter2;arcSize=6;size=0.27;labelPosition=center;align=center;fillColor=#e1d5e7;strokeColor=#9673a6;fontSize=16;" vertex="1" parent="1">
          <mxGeometry x="-137.5" y="10" width="140" height="80" as="geometry" />
        </mxCell>
        <mxCell id="iAksBa2o4i4fiiUXH_SR-11" style="edgeStyle=orthogonalEdgeStyle;rounded=0;orthogonalLoop=1;jettySize=auto;html=1;exitX=0.5;exitY=1;exitDx=0;exitDy=0;exitPerimeter=0;fillColor=#a20025;strokeColor=#6F0000;" edge="1" parent="1" source="iAksBa2o4i4fiiUXH_SR-12">
          <mxGeometry relative="1" as="geometry">
            <mxPoint x="-77.5" y="-360" as="targetPoint" />
          </mxGeometry>
        </mxCell>
        <mxCell id="iAksBa2o4i4fiiUXH_SR-12" value="&lt;font style=&quot;font-size: 20px;&quot;&gt;Inicio(avanza)&lt;/font&gt;" style="strokeWidth=2;html=1;shape=mxgraph.flowchart.start_1;whiteSpace=wrap;fillColor=#f8cecc;strokeColor=#b85450;" vertex="1" parent="1">
          <mxGeometry x="-141.25" y="-460" width="127.5" height="80" as="geometry" />
        </mxCell>
        <mxCell id="iAksBa2o4i4fiiUXH_SR-13" value="&lt;font style=&quot;font-size: 20px;&quot;&gt;Fin&lt;/font&gt;" style="strokeWidth=2;html=1;shape=mxgraph.flowchart.terminator;whiteSpace=wrap;fillColor=#f8cecc;strokeColor=#b85450;" vertex="1" parent="1">
          <mxGeometry x="-127.5" y="-180" width="100" height="60" as="geometry" />
        </mxCell>
        <mxCell id="iAksBa2o4i4fiiUXH_SR-14" style="edgeStyle=orthogonalEdgeStyle;rounded=0;orthogonalLoop=1;jettySize=auto;html=1;exitX=0.5;exitY=1;exitDx=0;exitDy=0;exitPerimeter=0;" edge="1" parent="1" source="iAksBa2o4i4fiiUXH_SR-15" target="iAksBa2o4i4fiiUXH_SR-10">
          <mxGeometry relative="1" as="geometry" />
        </mxCell>
        <mxCell id="iAksBa2o4i4fiiUXH_SR-15" value="&lt;font style=&quot;font-size: 20px;&quot;&gt;Inicio(giro(n))&lt;/font&gt;" style="strokeWidth=2;html=1;shape=mxgraph.flowchart.start_1;whiteSpace=wrap;fillColor=#f8cecc;strokeColor=#b85450;" vertex="1" parent="1">
          <mxGeometry x="-147.5" y="-90" width="160" height="80" as="geometry" />
        </mxCell>
        <mxCell id="iAksBa2o4i4fiiUXH_SR-16" value="&lt;font style=&quot;font-size: 20px;&quot;&gt;Fin&lt;/font&gt;" style="strokeWidth=2;html=1;shape=mxgraph.flowchart.terminator;whiteSpace=wrap;fillColor=#f8cecc;strokeColor=#b85450;" vertex="1" parent="1">
          <mxGeometry x="-117.5" y="230" width="100" height="60" as="geometry" />
        </mxCell>
        <mxCell id="iAksBa2o4i4fiiUXH_SR-25" style="edgeStyle=orthogonalEdgeStyle;rounded=0;orthogonalLoop=1;jettySize=auto;html=1;exitX=0.5;exitY=1;exitDx=0;exitDy=0;entryX=1;entryY=0.5;entryDx=0;entryDy=0;" edge="1" parent="1" source="iAksBa2o4i4fiiUXH_SR-26" target="iAksBa2o4i4fiiUXH_SR-10">
          <mxGeometry relative="1" as="geometry">
            <Array as="points">
              <mxPoint x="-67" y="160" />
              <mxPoint x="23" y="160" />
              <mxPoint x="23" y="50" />
            </Array>
          </mxGeometry>
        </mxCell>
        <mxCell id="iAksBa2o4i4fiiUXH_SR-26" value="turnleft();" style="rounded=1;whiteSpace=wrap;html=1;absoluteArcSize=1;arcSize=14;strokeWidth=2;fillColor=#e1d5e7;strokeColor=#9673a6;" vertex="1" parent="1">
          <mxGeometry x="-117.5" y="110" width="100" height="30" as="geometry" />
        </mxCell>
        <mxCell id="iAksBa2o4i4fiiUXH_SR-27" style="edgeStyle=orthogonalEdgeStyle;rounded=0;orthogonalLoop=1;jettySize=auto;html=1;exitX=0;exitY=0.5;exitDx=0;exitDy=0;entryX=0.5;entryY=0;entryDx=0;entryDy=0;entryPerimeter=0;" edge="1" parent="1" source="iAksBa2o4i4fiiUXH_SR-6" target="iAksBa2o4i4fiiUXH_SR-13">
          <mxGeometry relative="1" as="geometry">
            <Array as="points">
              <mxPoint x="-167.5" y="-320" />
              <mxPoint x="-167.5" y="-190" />
              <mxPoint x="-77.5" y="-190" />
            </Array>
          </mxGeometry>
        </mxCell>
        <mxCell id="iAksBa2o4i4fiiUXH_SR-46" value="class program {&#xa;    void avanza(){&#xa;        iterate(5)&#xa;            move();&#xa;    }&#xa;    void giro(n){&#xa;        iterate(n)&#xa;           turnleft();&#xa;        move();&#xa;    }&#xa;&#xa;&#xa;program() {&#xa;    avanza();&#xa;    iterate(2)&#xa;        giro(3);&#xa;    iterate(4)&#xa;        giro(4);&#xa;    turnoff();&#xa;}&#xa;&#xa;&#xa;}" style="text;whiteSpace=wrap;" vertex="1" parent="1">
          <mxGeometry x="380" y="-530" width="120" height="350" as="geometry" />
        </mxCell>
        <mxCell id="iAksBa2o4i4fiiUXH_SR-49" style="edgeStyle=orthogonalEdgeStyle;rounded=0;orthogonalLoop=1;jettySize=auto;html=1;exitX=0.5;exitY=1;exitDx=0;exitDy=0;" edge="1" parent="1" source="iAksBa2o4i4fiiUXH_SR-47" target="iAksBa2o4i4fiiUXH_SR-16">
          <mxGeometry relative="1" as="geometry" />
        </mxCell>
        <mxCell id="iAksBa2o4i4fiiUXH_SR-47" value="move();" style="rounded=1;whiteSpace=wrap;html=1;absoluteArcSize=1;arcSize=14;strokeWidth=2;fillColor=#e1d5e7;strokeColor=#9673a6;" vertex="1" parent="1">
          <mxGeometry x="-117.5" y="180" width="100" height="30" as="geometry" />
        </mxCell>
        <mxCell id="iAksBa2o4i4fiiUXH_SR-55" style="edgeStyle=orthogonalEdgeStyle;rounded=0;orthogonalLoop=1;jettySize=auto;html=1;exitX=0.5;exitY=1;exitDx=0;exitDy=0;" edge="1" parent="1" source="iAksBa2o4i4fiiUXH_SR-50" target="iAksBa2o4i4fiiUXH_SR-53">
          <mxGeometry relative="1" as="geometry" />
        </mxCell>
        <mxCell id="iAksBa2o4i4fiiUXH_SR-58" style="edgeStyle=orthogonalEdgeStyle;rounded=0;orthogonalLoop=1;jettySize=auto;html=1;exitX=0;exitY=0.5;exitDx=0;exitDy=0;entryX=0.5;entryY=0;entryDx=0;entryDy=0;" edge="1" parent="1" source="iAksBa2o4i4fiiUXH_SR-50" target="iAksBa2o4i4fiiUXH_SR-51">
          <mxGeometry relative="1" as="geometry">
            <Array as="points">
              <mxPoint x="140" y="-160" />
              <mxPoint x="140" y="-30" />
              <mxPoint x="230" y="-30" />
            </Array>
          </mxGeometry>
        </mxCell>
        <mxCell id="iAksBa2o4i4fiiUXH_SR-50" value="&lt;font style=&quot;font-size: 16px;&quot;&gt;2&lt;/font&gt;" style="verticalLabelPosition=middle;verticalAlign=middle;html=1;shape=hexagon;perimeter=hexagonPerimeter2;arcSize=6;size=0.27;labelPosition=center;align=center;fillColor=#dae8fc;strokeColor=#6c8ebf;" vertex="1" parent="1">
          <mxGeometry x="160" y="-200" width="140" height="80" as="geometry" />
        </mxCell>
        <mxCell id="iAksBa2o4i4fiiUXH_SR-56" style="edgeStyle=orthogonalEdgeStyle;rounded=0;orthogonalLoop=1;jettySize=auto;html=1;exitX=0.5;exitY=1;exitDx=0;exitDy=0;" edge="1" parent="1" source="iAksBa2o4i4fiiUXH_SR-51" target="iAksBa2o4i4fiiUXH_SR-54">
          <mxGeometry relative="1" as="geometry" />
        </mxCell>
        <mxCell id="iAksBa2o4i4fiiUXH_SR-60" style="edgeStyle=orthogonalEdgeStyle;rounded=0;orthogonalLoop=1;jettySize=auto;html=1;exitX=0;exitY=0.5;exitDx=0;exitDy=0;" edge="1" parent="1" source="iAksBa2o4i4fiiUXH_SR-51" target="iAksBa2o4i4fiiUXH_SR-4">
          <mxGeometry relative="1" as="geometry">
            <Array as="points">
              <mxPoint x="140" y="20" />
              <mxPoint x="140" y="150" />
              <mxPoint x="235" y="150" />
            </Array>
          </mxGeometry>
        </mxCell>
        <mxCell id="iAksBa2o4i4fiiUXH_SR-51" value="&lt;font style=&quot;font-size: 16px;&quot;&gt;4&lt;/font&gt;" style="verticalLabelPosition=middle;verticalAlign=middle;html=1;shape=hexagon;perimeter=hexagonPerimeter2;arcSize=6;size=0.27;labelPosition=center;align=center;fillColor=#dae8fc;strokeColor=#6c8ebf;" vertex="1" parent="1">
          <mxGeometry x="160" y="-20" width="140" height="80" as="geometry" />
        </mxCell>
        <mxCell id="iAksBa2o4i4fiiUXH_SR-62" style="edgeStyle=orthogonalEdgeStyle;rounded=0;orthogonalLoop=1;jettySize=auto;html=1;exitX=0.5;exitY=1;exitDx=0;exitDy=0;" edge="1" parent="1" source="iAksBa2o4i4fiiUXH_SR-52" target="iAksBa2o4i4fiiUXH_SR-50">
          <mxGeometry relative="1" as="geometry" />
        </mxCell>
        <mxCell id="iAksBa2o4i4fiiUXH_SR-52" value="&lt;span style=&quot;color: rgb(0, 0, 0); font-family: Helvetica; font-size: 20px; font-style: normal; font-variant-ligatures: normal; font-variant-caps: normal; font-weight: 400; letter-spacing: normal; orphans: 2; text-align: center; text-indent: 0px; text-transform: none; widows: 2; word-spacing: 0px; -webkit-text-stroke-width: 0px; background-color: rgb(251, 251, 251); text-decoration-thickness: initial; text-decoration-style: initial; text-decoration-color: initial; float: none; display: inline !important;&quot;&gt;avanza()&lt;/span&gt;" style="verticalLabelPosition=middle;verticalAlign=middle;html=1;shape=process;whiteSpace=wrap;rounded=1;size=0.14;arcSize=50;labelPosition=center;align=center;" vertex="1" parent="1">
          <mxGeometry x="155" y="-260" width="150" height="40" as="geometry" />
        </mxCell>
        <mxCell id="iAksBa2o4i4fiiUXH_SR-57" style="edgeStyle=orthogonalEdgeStyle;rounded=0;orthogonalLoop=1;jettySize=auto;html=1;exitX=0.5;exitY=1;exitDx=0;exitDy=0;entryX=1;entryY=0.5;entryDx=0;entryDy=0;" edge="1" parent="1" source="iAksBa2o4i4fiiUXH_SR-53" target="iAksBa2o4i4fiiUXH_SR-50">
          <mxGeometry relative="1" as="geometry">
            <Array as="points">
              <mxPoint x="230" y="-40" />
              <mxPoint x="320" y="-40" />
              <mxPoint x="320" y="-160" />
            </Array>
          </mxGeometry>
        </mxCell>
        <mxCell id="iAksBa2o4i4fiiUXH_SR-53" value="&lt;span style=&quot;color: rgb(0, 0, 0); font-family: Helvetica; font-size: 20px; font-style: normal; font-variant-ligatures: normal; font-variant-caps: normal; font-weight: 400; letter-spacing: normal; orphans: 2; text-align: center; text-indent: 0px; text-transform: none; widows: 2; word-spacing: 0px; -webkit-text-stroke-width: 0px; background-color: rgb(251, 251, 251); text-decoration-thickness: initial; text-decoration-style: initial; text-decoration-color: initial; float: none; display: inline !important;&quot;&gt;giro(3)&lt;/span&gt;" style="verticalLabelPosition=middle;verticalAlign=middle;html=1;shape=process;whiteSpace=wrap;rounded=1;size=0.14;arcSize=50;labelPosition=center;align=center;" vertex="1" parent="1">
          <mxGeometry x="155" y="-100" width="150" height="40" as="geometry" />
        </mxCell>
        <mxCell id="iAksBa2o4i4fiiUXH_SR-59" style="edgeStyle=orthogonalEdgeStyle;rounded=0;orthogonalLoop=1;jettySize=auto;html=1;exitX=0.5;exitY=1;exitDx=0;exitDy=0;entryX=1;entryY=0.5;entryDx=0;entryDy=0;" edge="1" parent="1" source="iAksBa2o4i4fiiUXH_SR-54" target="iAksBa2o4i4fiiUXH_SR-51">
          <mxGeometry relative="1" as="geometry">
            <Array as="points">
              <mxPoint x="230" y="140" />
              <mxPoint x="320" y="140" />
              <mxPoint x="320" y="20" />
            </Array>
          </mxGeometry>
        </mxCell>
        <mxCell id="iAksBa2o4i4fiiUXH_SR-54" value="&lt;span style=&quot;color: rgb(0, 0, 0); font-family: Helvetica; font-size: 20px; font-style: normal; font-variant-ligatures: normal; font-variant-caps: normal; font-weight: 400; letter-spacing: normal; orphans: 2; text-align: center; text-indent: 0px; text-transform: none; widows: 2; word-spacing: 0px; -webkit-text-stroke-width: 0px; background-color: rgb(251, 251, 251); text-decoration-thickness: initial; text-decoration-style: initial; text-decoration-color: initial; float: none; display: inline !important;&quot;&gt;giro()&lt;/span&gt;" style="verticalLabelPosition=middle;verticalAlign=middle;html=1;shape=process;whiteSpace=wrap;rounded=1;size=0.14;arcSize=50;labelPosition=center;align=center;" vertex="1" parent="1">
          <mxGeometry x="155" y="80" width="150" height="40" as="geometry" />
        </mxCell>
      </root>
    </mxGraphModel>
  </diagram>
</mxfile>
